# xmcd
#
# Track frame offsets:
#	150
#	14918
#	29510
#	45308
#	58588
#	70150
#	82150
#	96855
#	112175
#	129778
#
# Disc length: 1938 seconds
#
# Revision: 0
# Processed by: cddbd v1.4PL0 Copyright (c) Steve Scherf et al.
# Submitted via: EasyCDDAExtractor 4.6.9.1
#
DISCID=8807900a
DTITLE=Ellis James - Because he lives
DYEAR=1900
DGENRE=Country
TTITLE0=Just a closer walk with thee
TTITLE1=Amazing grace
TTITLE2=Where could I go but to the lord
TTITLE3=You'll never walk alone
TTITLE4=I'll fly away
TTITLE5=Lead me,guide me
TTITLE6=Peace in the valley
TTITLE7=Stand by me
TTITLE8=Because he lives
TTITLE9=Precious memories
EXTD=
EXTT0=
EXTT1=
EXTT2=
EXTT3=
EXTT4=
EXTT5=
EXTT6=
EXTT7=
EXTT8=
EXTT9=
PLAYORDER=
